<svg width="600" height="500" viewBox="0 0 600 500" fill="none" xmlns="http://www.w3.org/2000/svg">
<g id="react_logo">
<rect id="Rectangle 1" x="0.5" y="0.5" width="599" height="499" stroke="#292B2C"/>
<g id="react_inner">
<path id="Vector" d="M299.52 342.951C235.088 342.951 174.482 333.359 128.868 315.943C82.6457 298.295 57.1902 274.588 57.1902 249.188C57.1902 223.789 82.6458 200.083 128.868 182.434C174.482 165.018 235.088 155.427 299.52 155.427C363.953 155.427 424.558 165.018 470.173 182.434C516.394 200.083 541.85 223.79 541.85 249.188C541.85 274.587 516.394 298.295 470.173 315.943C424.558 333.359 363.953 342.951 299.52 342.951ZM299.52 159.427C235.563 159.427 175.465 168.925 130.295 186.171C85.7317 203.186 61.1902 225.566 61.1902 249.188C61.1902 272.81 85.7317 295.191 130.295 312.206C175.465 329.453 235.563 338.951 299.52 338.951C363.477 338.951 423.576 329.453 468.745 312.206C513.308 295.191 537.85 272.811 537.85 249.188C537.85 225.565 513.308 203.186 468.745 186.171C423.575 168.925 363.477 159.427 299.52 159.427Z" fill="#61DAFB"/>
<path id="Vector_2" d="M399.642 464.378C379.618 464.378 354.657 452.805 327.035 430.355C289.145 399.56 250.535 351.87 218.32 296.07C186.103 240.27 164.107 182.988 156.383 134.777C148.556 85.9228 156.359 52.0243 178.355 39.3251C200.351 26.6264 233.611 36.8178 272.005 68.0224C309.895 98.8178 348.505 146.508 380.72 202.308C412.937 258.107 434.933 315.39 442.657 363.601C450.484 412.455 442.681 446.353 420.685 459.054C414.513 462.616 407.452 464.378 399.642 464.378ZM199.505 37.9692C192.365 37.9692 185.943 39.5629 180.355 42.789C159.897 54.6005 152.786 87.0439 160.333 134.144C167.982 181.886 189.805 238.682 221.783 294.07C253.762 349.458 292.037 396.756 329.558 427.251C366.575 457.337 398.228 467.402 418.685 455.589C439.143 443.777 446.254 411.334 438.707 364.234C431.058 316.492 409.235 259.696 377.257 204.308C345.278 148.92 307.003 101.622 269.482 71.1269C242.576 49.2587 218.504 37.9692 199.505 37.9692Z" fill="#61DAFB"/>
<path id="Vector_3" d="M199.397 464.378C191.586 464.378 184.528 462.617 178.355 459.054C156.359 446.353 148.556 412.455 156.383 363.602C164.107 315.39 186.103 258.107 218.32 202.308C250.535 146.508 289.145 98.8178 327.035 68.0224C365.43 36.8173 398.69 26.6249 420.685 39.3251C442.681 52.0243 450.484 85.9228 442.657 134.777C434.933 182.988 412.937 240.27 380.72 296.07C348.505 351.87 309.895 399.56 272.005 430.355C244.385 452.804 219.421 464.378 199.397 464.378ZM399.535 37.9692C380.536 37.9692 356.467 49.2573 329.558 71.1269C292.037 101.622 253.762 148.92 221.783 204.308C189.805 259.696 167.982 316.492 160.333 364.234C152.786 411.334 159.897 443.777 180.355 455.589C185.942 458.814 192.367 460.408 199.505 460.409C218.504 460.411 242.573 449.121 269.482 427.251C307.003 396.756 345.278 349.458 377.257 294.07C409.235 238.682 431.058 181.886 438.707 134.144C446.254 87.0439 439.143 54.6005 418.685 42.789C413.098 39.5639 406.673 37.9692 399.535 37.9692Z" fill="#61DAFB"/>
<path id="Vector_4" d="M299.52 293.978C324.256 293.978 344.309 273.925 344.309 249.189C344.309 224.453 324.256 204.4 299.52 204.4C274.784 204.4 254.731 224.453 254.731 249.189C254.731 273.925 274.784 293.978 299.52 293.978Z" fill="#61DAFB"/>
</g>
</g>
</svg>
